<svg width="28" height="28" viewBox="0 0 28 28" fill="none" xmlns="http://www.w3.org/2000/svg">
<path d="M9.33333 12.5416C9.33333 13.3471 8.68041 14 7.875 14C7.06959 14 6.41666 13.3471 6.41666 12.5416C6.41666 11.7362 7.06959 11.0833 7.875 11.0833C8.68041 11.0833 9.33333 11.7362 9.33333 12.5416Z" stroke="white" stroke-width="2" stroke-linecap="round" stroke-linejoin="round"/>
<path d="M25.0833 21.5834V18.0834C25.0833 17.439 24.561 16.9167 23.9167 16.9167H2.91667" stroke="white" stroke-width="2" stroke-linecap="round" stroke-linejoin="round"/>
<path d="M2.91667 6.41669V21.5834" stroke="white" stroke-width="2" stroke-linecap="round" stroke-linejoin="round"/>
<path d="M11.6667 12.25C11.6667 11.6056 12.189 11.0833 12.8333 11.0833H22.0937L23.3333 14H12.8333C12.189 14 11.6667 13.4777 11.6667 12.8333V12.25Z" stroke="white" stroke-width="2" stroke-linecap="round" stroke-linejoin="round"/>
</svg>
