<svg width="32" height="32" viewBox="0 0 32 32" fill="none" xmlns="http://www.w3.org/2000/svg">
<path d="M23.4595 14.5756C25.596 14.5756 27.3291 12.8438 27.3291 10.7073C27.3291 8.57087 25.596 6.83898 23.4595 6.83898" stroke="white" stroke-width="2" stroke-linecap="round" stroke-linejoin="round"/>
<path d="M25.2386 18.7797C25.8766 18.8237 26.5109 18.9141 27.1355 19.0547C28.0032 19.2246 29.047 19.5802 29.4186 20.3588C29.6557 20.8575 29.6557 21.438 29.4186 21.9379C29.0482 22.7165 28.0032 23.0709 27.1355 23.2493" stroke="white" stroke-width="2" stroke-linecap="round" stroke-linejoin="round"/>
<path d="M8.38679 14.5756C6.25034 14.5756 4.51723 12.8438 4.51723 10.7073C4.51723 8.57087 6.25034 6.83898 8.38679 6.83898" stroke="white" stroke-width="2" stroke-linecap="round" stroke-linejoin="round"/>
<path d="M6.60762 18.7797C5.96962 18.8237 5.33529 18.9141 4.71073 19.0547C3.84296 19.2246 2.79918 19.5802 2.42885 20.3588C2.19051 20.8575 2.19051 21.438 2.42885 21.9379C2.79796 22.7165 3.84296 23.0709 4.71073 23.2493" stroke="white" stroke-width="2" stroke-linecap="round" stroke-linejoin="round"/>
<path fill-rule="evenodd" clip-rule="evenodd" d="M15.9167 19.6137C20.2459 19.6137 23.9443 20.2688 23.9443 22.8904C23.9443 25.5109 20.2703 26.1904 15.9167 26.1904C11.5864 26.1904 7.88919 25.5353 7.88919 22.9137C7.88919 20.292 11.5632 19.6137 15.9167 19.6137Z" stroke="white" stroke-width="2" stroke-linecap="round" stroke-linejoin="round"/>
<path fill-rule="evenodd" clip-rule="evenodd" d="M15.9174 15.874C13.0623 15.874 10.773 13.5848 10.773 10.7285C10.773 7.87334 13.0623 5.58412 15.9174 5.58412C18.7725 5.58412 21.0617 7.87334 21.0617 10.7285C21.0617 13.5848 18.7725 15.874 15.9174 15.874Z" stroke="white" stroke-width="2" stroke-linecap="round" stroke-linejoin="round"/>
</svg>
