<svg width="18" height="21" viewBox="0 0 18 21" fill="none" xmlns="http://www.w3.org/2000/svg">
<path d="M15.277 7.55887C15.277 7.55887 14.7793 14.1357 14.4905 16.906C14.353 18.2292 13.5858 19.0046 12.329 19.029C9.93746 19.0749 7.54313 19.0778 5.15246 19.0241C3.94338 18.9977 3.18896 18.2126 3.05421 16.9129C2.76363 14.1181 2.26863 7.55887 2.26863 7.55887" stroke="black" stroke-width="2" stroke-linecap="round" stroke-linejoin="round"/>
<path d="M16.5448 4.40665H1" stroke="black" stroke-width="2" stroke-linecap="round" stroke-linejoin="round"/>
<path d="M13.5498 4.40705C12.8302 4.40705 12.2106 3.86508 12.0694 3.11415L11.8467 1.92671C11.7092 1.37889 11.2435 1 10.7127 1H6.83249C6.30174 1 5.83607 1.37889 5.69857 1.92671L5.47582 3.11415C5.33466 3.86508 4.71499 4.40705 3.99541 4.40705" stroke="black" stroke-width="2" stroke-linecap="round" stroke-linejoin="round"/>
</svg>
