<svg width="25" height="24" viewBox="0 0 25 24" fill="none" xmlns="http://www.w3.org/2000/svg">
<path d="M10.05 17.5749C9.91667 17.5749 9.79167 17.5539 9.675 17.5119C9.55833 17.4706 9.45 17.3999 9.35 17.2999L5.05 12.9999C4.86667 12.8166 4.779 12.5789 4.787 12.2869C4.79567 11.9956 4.89167 11.7582 5.075 11.5749C5.25833 11.3916 5.49167 11.2999 5.775 11.2999C6.05833 11.2999 6.29167 11.3916 6.475 11.5749L10.05 15.1499L18.525 6.6749C18.7083 6.49157 18.946 6.3999 19.238 6.3999C19.5293 6.3999 19.7667 6.49157 19.95 6.6749C20.1333 6.85824 20.225 7.09557 20.225 7.3869C20.225 7.6789 20.1333 7.91657 19.95 8.0999L10.75 17.2999C10.65 17.3999 10.5417 17.4706 10.425 17.5119C10.3083 17.5539 10.1833 17.5749 10.05 17.5749Z" fill="white"/>
</svg>
