<svg width="40" height="40" viewBox="0 0 40 40" fill="none" xmlns="http://www.w3.org/2000/svg">
<path fill-rule="evenodd" clip-rule="evenodd" d="M38.421 11.7979V28.0979C38.421 34.1379 34.641 38.3979 28.601 38.3979H11.301C5.26098 38.3979 1.50098 34.1379 1.50098 28.0979V11.7979C1.50098 5.75788 5.28098 1.49988 11.301 1.49988H28.601C34.641 1.49988 38.421 5.75788 38.421 11.7979Z" stroke="black" stroke-width="2" stroke-linecap="round" stroke-linejoin="round"/>
<path d="M6.56344 28.8625L9.62144 25.6365C10.7234 24.4725 12.5734 24.4665 13.6854 25.6205L15.4554 27.4265C16.6494 28.6445 18.6354 28.5565 19.7174 27.2385L24.1754 21.8165C25.4554 20.2585 27.8034 20.1625 29.2054 21.6085L33.3574 25.8925" stroke="black" stroke-width="2" stroke-linecap="round" stroke-linejoin="round"/>
<path fill-rule="evenodd" clip-rule="evenodd" d="M16.6281 14.2646C16.6281 16.2006 15.0561 17.7726 13.1201 17.7726C11.1841 17.7726 9.61414 16.2006 9.61414 14.2646C9.61414 12.3286 11.1841 10.7566 13.1201 10.7566C15.0561 10.7566 16.6281 12.3286 16.6281 14.2646Z" stroke="black" stroke-width="2" stroke-linecap="round" stroke-linejoin="round"/>
</svg>
