<svg width="32" height="32" viewBox="0 0 32 32" fill="none" xmlns="http://www.w3.org/2000/svg">
<path fill-rule="evenodd" clip-rule="evenodd" d="M21.713 2.66663H26.0684C27.8705 2.66663 29.3323 4.14116 29.3323 5.9602V10.3521C29.3323 12.1698 27.8705 13.6457 26.0684 13.6457H21.713C19.9096 13.6457 18.4478 12.1698 18.4478 10.3521V5.9602C18.4478 4.14116 19.9096 2.66663 21.713 2.66663Z" stroke="white" stroke-width="2" stroke-linecap="round" stroke-linejoin="round"/>
<path fill-rule="evenodd" clip-rule="evenodd" d="M5.93124 2.66663H10.2853C12.0887 2.66663 13.5506 4.14116 13.5506 5.9602V10.3521C13.5506 12.1698 12.0887 13.6457 10.2853 13.6457H5.93124C4.12785 13.6457 2.66602 12.1698 2.66602 10.3521V5.9602C2.66602 4.14116 4.12785 2.66663 5.93124 2.66663Z" stroke="white" stroke-width="2" stroke-linecap="round" stroke-linejoin="round"/>
<path fill-rule="evenodd" clip-rule="evenodd" d="M5.93124 18.3544H10.2853C12.0887 18.3544 13.5506 19.8289 13.5506 21.6493V26.0398C13.5506 27.8589 12.0887 29.3334 10.2853 29.3334H5.93124C4.12785 29.3334 2.66602 27.8589 2.66602 26.0398V21.6493C2.66602 19.8289 4.12785 18.3544 5.93124 18.3544Z" stroke="white" stroke-width="2" stroke-linecap="round" stroke-linejoin="round"/>
<path fill-rule="evenodd" clip-rule="evenodd" d="M21.713 18.3544H26.0684C27.8705 18.3544 29.3323 19.8289 29.3323 21.6493V26.0398C29.3323 27.8589 27.8705 29.3334 26.0684 29.3334H21.713C19.9096 29.3334 18.4478 27.8589 18.4478 26.0398V21.6493C18.4478 19.8289 19.9096 18.3544 21.713 18.3544Z" stroke="white" stroke-width="2" stroke-linecap="round" stroke-linejoin="round"/>
</svg>
