<svg width="30" height="30" viewBox="0 0 30 30" fill="none" xmlns="http://www.w3.org/2000/svg">
<path fill-rule="evenodd" clip-rule="evenodd" d="M20.713 1.66663H25.0685C26.8705 1.66663 28.3323 3.14116 28.3323 4.9602V9.3521C28.3323 11.1698 26.8705 12.6457 25.0685 12.6457H20.713C18.9096 12.6457 17.4478 11.1698 17.4478 9.3521V4.9602C17.4478 3.14116 18.9096 1.66663 20.713 1.66663Z" stroke="black" stroke-width="2" stroke-linecap="round" stroke-linejoin="round"/>
<path fill-rule="evenodd" clip-rule="evenodd" d="M4.93124 1.66663H9.28534C11.0887 1.66663 12.5506 3.14116 12.5506 4.9602V9.3521C12.5506 11.1698 11.0887 12.6457 9.28534 12.6457H4.93124C3.12785 12.6457 1.66602 11.1698 1.66602 9.3521V4.9602C1.66602 3.14116 3.12785 1.66663 4.93124 1.66663Z" stroke="black" stroke-width="2" stroke-linecap="round" stroke-linejoin="round"/>
<path fill-rule="evenodd" clip-rule="evenodd" d="M4.93124 17.3544H9.28534C11.0887 17.3544 12.5506 18.8289 12.5506 20.6493V25.0398C12.5506 26.8589 11.0887 28.3334 9.28534 28.3334H4.93124C3.12785 28.3334 1.66602 26.8589 1.66602 25.0398V20.6493C1.66602 18.8289 3.12785 17.3544 4.93124 17.3544Z" stroke="black" stroke-width="2" stroke-linecap="round" stroke-linejoin="round"/>
<path fill-rule="evenodd" clip-rule="evenodd" d="M20.713 17.3544H25.0685C26.8705 17.3544 28.3323 18.8289 28.3323 20.6493V25.0398C28.3323 26.8589 26.8705 28.3334 25.0685 28.3334H20.713C18.9096 28.3334 17.4478 26.8589 17.4478 25.0398V20.6493C17.4478 18.8289 18.9096 17.3544 20.713 17.3544Z" stroke="black" stroke-width="2" stroke-linecap="round" stroke-linejoin="round"/>
</svg>
