<svg width="28" height="30" viewBox="0 0 28 30" fill="none" xmlns="http://www.w3.org/2000/svg">
<path d="M10.2093 26.6952V22.6062C10.2093 21.5662 11.0572 20.7211 12.1077 20.7141H15.9558C17.0113 20.7141 17.867 21.5612 17.867 22.6062V22.6062V26.7079C17.8668 27.5909 18.5787 28.3126 19.4704 28.3333H22.0358C24.5932 28.3333 26.6663 26.2809 26.6663 23.7491V23.7491V12.1171C26.6527 11.1211 26.1803 10.1858 25.3836 9.57737L16.61 2.58039C15.0729 1.36208 12.8879 1.36208 11.3509 2.58039L2.61571 9.59007C1.81602 10.196 1.34286 11.1329 1.33301 12.1298V23.7491C1.33301 26.2809 3.40617 28.3333 5.96356 28.3333H8.52896C9.44281 28.3333 10.1836 27.5999 10.1836 26.6952V26.6952" stroke="white" stroke-width="2" stroke-linecap="round" stroke-linejoin="round"/>
</svg>
