<svg width="32" height="32" viewBox="0 0 32 32" fill="none" xmlns="http://www.w3.org/2000/svg">
<path fill-rule="evenodd" clip-rule="evenodd" d="M27.7412 10.1642L26.9113 8.72407C26.2092 7.5055 24.6532 7.08513 23.433 7.78433V7.78433C22.8521 8.12649 22.1591 8.22357 21.5066 8.05415C20.8541 7.88473 20.2957 7.46273 19.9547 6.8812C19.7354 6.51157 19.6175 6.09056 19.613 5.66076V5.66076C19.6328 4.97166 19.3728 4.30391 18.8923 3.8096C18.4118 3.31529 17.7517 3.03652 17.0623 3.0368H15.3903C14.7149 3.0368 14.0674 3.30592 13.5909 3.78463C13.1145 4.26334 12.8485 4.91216 12.8518 5.58753V5.58753C12.8317 6.98194 11.6956 8.10178 10.301 8.10164C9.87122 8.09718 9.45022 7.9793 9.08059 7.75992V7.75992C7.86036 7.06072 6.30443 7.4811 5.60233 8.69966L4.7114 10.1642C4.01016 11.3812 4.42481 12.9362 5.63894 13.6424V13.6424C6.42815 14.0981 6.91432 14.9402 6.91432 15.8514C6.91432 16.7627 6.42815 17.6048 5.63894 18.0605V18.0605C4.42635 18.762 4.01124 20.3131 4.7114 21.5265V21.5265L5.55351 22.9788C5.88247 23.5724 6.43441 24.0104 7.0872 24.196C7.73999 24.3815 8.4398 24.2992 9.03177 23.9674V23.9674C9.61372 23.6278 10.3072 23.5348 10.9581 23.709C11.6089 23.8831 12.1633 24.3101 12.4978 24.8949C12.7172 25.2646 12.8351 25.6856 12.8396 26.1154V26.1154C12.8396 27.5241 13.9816 28.6661 15.3903 28.6661H17.0623C18.4663 28.6661 19.6063 27.5315 19.613 26.1276V26.1276C19.6097 25.4501 19.8774 24.7994 20.3565 24.3203C20.8356 23.8413 21.4862 23.5736 22.1637 23.5769C22.5925 23.5883 23.0118 23.7057 23.3842 23.9186V23.9186C24.6012 24.6198 26.1562 24.2052 26.8624 22.991V22.991L27.7412 21.5265C28.0813 20.9427 28.1746 20.2474 28.0005 19.5945C27.8265 18.9417 27.3993 18.3852 26.8136 18.0482V18.0482C26.228 17.7113 25.8008 17.1548 25.6267 16.502C25.4526 15.8491 25.546 15.1538 25.8861 14.57C26.1073 14.1838 26.4275 13.8636 26.8136 13.6424V13.6424C28.0205 12.9366 28.4342 11.3907 27.7412 10.1764V10.1764V10.1642Z" stroke="black" stroke-width="2" stroke-linecap="round" stroke-linejoin="round"/>
<ellipse cx="16.2323" cy="15.8521" rx="3.51487" ry="3.51487" stroke="black" stroke-width="2" stroke-linecap="round" stroke-linejoin="round"/>
</svg>
